<?xml version="1.0" encoding="UTF-8" standalone="no"?>
<svg
   xmlns:dc="http://purl.org/dc/elements/1.1/"
   xmlns:cc="http://creativecommons.org/ns#"
   xmlns:rdf="http://www.w3.org/1999/02/22-rdf-syntax-ns#"
   xmlns:svg="http://www.w3.org/2000/svg"
   xmlns="http://www.w3.org/2000/svg"
   xmlns:sodipodi="http://sodipodi.sourceforge.net/DTD/sodipodi-0.dtd"
   xmlns:inkscape="http://www.inkscape.org/namespaces/inkscape"
   version="1.1"
   id="svg10"
   width="4604.4443"
   height="220"
   viewBox="0 0 4604.4443 220"
   sodipodi:docname="form-menu-background.svg"
   inkscape:version="1.0.1 (3bc2e813f5, 2020-09-07)">
  <metadata
     id="metadata16">
    <rdf:RDF>
      <cc:Work
         rdf:about="">
        <dc:format>image/svg+xml</dc:format>
        <dc:type
           rdf:resource="http://purl.org/dc/dcmitype/StillImage" />
        <dc:title></dc:title>
      </cc:Work>
    </rdf:RDF>
  </metadata>
  <defs
     id="defs14" />
  <sodipodi:namedview
     pagecolor="#ffffff"
     bordercolor="#666666"
     borderopacity="1"
     objecttolerance="10"
     gridtolerance="10"
     guidetolerance="10"
     inkscape:pageopacity="0"
     inkscape:pageshadow="2"
     inkscape:window-width="1920"
     inkscape:window-height="1017"
     id="namedview12"
     showgrid="false"
     inkscape:zoom="0.52858963"
     inkscape:cx="1479.3546"
     inkscape:cy="275.54739"
     inkscape:window-x="1072"
     inkscape:window-y="642"
     inkscape:window-maximized="1"
     inkscape:current-layer="g18" />
  <g
     inkscape:groupmode="layer"
     inkscape:label="Image"
     id="g18">
    <path
       style="fill:#020a2f;fill-opacity:1;stroke:#000000;stroke-width:1.00195px;stroke-linecap:butt;stroke-linejoin:miter;stroke-opacity:1"
       d="M 0.72259286,216.32639 C 57.701055,52.513307 239.31792,77.766385 298.59928,94.833004 534.06777,162.62245 1057.6446,81.470073 1137.0829,60.573827 c 168.6263,-44.35717 246.438,-55.5348406 294.7934,-55.1367444 101.2033,0.8331772 140.2962,-30.5525946 532.9527,84.4450594 264.4874,77.460658 318.4018,75.211628 672.5102,100.317508 148.5062,10.52892 972.0583,-4.85333 1120.6063,-14.353 113.302,-7.24566 249.1934,-24.21075 361.1089,-42.61056 124.7412,-20.50844 342.422,-55.838768 424.4246,-92.947062 87.9079,-39.78063921 66.6919,-45.3884577 66.6919,-45.3884577 -449.1807,-7.6692403 -645.8857,4.26831978 -1095.129,2.5273268 L -1.0242937,-8.9839834 -2.464497,149.02641 Z"
       id="path22"
       sodipodi:nodetypes="cssssssssccccc" />
  </g>
</svg>
